<svg xmlns="http://www.w3.org/2000/svg" width="590" height="104" viewBox="0 0 590 104" version="1.1"><path d="M 515.382 8.909 C 509.845 12.285, 510.123 19.461, 515.907 22.452 C 519.955 24.545, 523.631 24.399, 526.984 22.011 C 532.161 18.325, 531.706 11.451, 526.093 8.548 C 522.133 6.500, 519.168 6.600, 515.382 8.909 M 10.952 12.837 L 8.500 14.821 8.207 48.161 C 8.046 66.497, 8.164 82.500, 8.469 83.722 C 9.906 89.476, 17.445 91.886, 22.139 88.092 C 24.255 86.382, 24.552 85.162, 25 76.342 L 25.500 66.500 37.382 65.803 C 51.425 64.979, 57.550 62.590, 63.788 55.503 C 68.266 50.416, 70 45.470, 70 37.783 C 70 27.534, 65.190 19.087, 56.659 14.359 C 51.565 11.536, 51.261 11.496, 32.452 11.176 C 14.675 10.874, 13.241 10.985, 10.952 12.837 M 441.924 13.581 L 439.500 16.161 439.500 50.667 L 439.500 85.173 442.306 87.587 C 445.891 90.670, 450.108 90.671, 453.694 87.589 C 456.465 85.208, 456.504 85.015, 456.829 72.089 L 457.159 59 472.532 59 C 489.358 59, 492.208 58.327, 494.033 53.921 C 495.719 49.851, 494.119 45.875, 489.940 43.752 C 487.127 42.322, 483.812 42.003, 471.750 42.002 L 457 42 457 34.561 L 457 27.121 476.089 26.811 L 495.177 26.500 497.589 23.694 C 500.547 20.252, 500.653 17.100, 497.927 13.635 L 495.855 11 470.102 11 L 444.349 11 441.924 13.581 M 216.110 15.396 C 212.792 17.234, 211.077 20.745, 211.035 25.781 C 211.009 28.935, 210.539 30.226, 209.250 30.683 C 205.813 31.902, 204 34.310, 204 37.655 C 204 41.189, 206.854 45, 209.500 45 C 210.770 45, 211 47.425, 211 60.822 C 211 83.899, 213.188 88.886, 224.336 91.225 C 228.801 92.161, 231.009 92.145, 234.739 91.147 C 240.805 89.525, 243 87.493, 243 83.500 C 243 79.430, 240.322 76.987, 235.092 76.286 C 232.858 75.986, 230.560 75.175, 229.986 74.483 C 229.340 73.705, 229.048 67.940, 229.221 59.363 L 229.500 45.500 234.741 44.973 C 240.419 44.402, 242.514 42.949, 243.507 38.891 C 244.564 34.573, 240.560 30.856, 234.191 30.244 L 229 29.746 229 25.823 C 229 20.837, 226.882 16.723, 223.528 15.195 C 220.253 13.702, 219.109 13.733, 216.110 15.396 M 554.357 14.992 C 550.940 16.370, 549 20.032, 549 25.101 C 549 29.301, 548.715 29.876, 546.086 30.964 C 542.040 32.640, 540.137 37.373, 542.102 40.873 C 542.904 42.302, 544.672 44.024, 546.030 44.700 C 548.487 45.921, 548.503 46.022, 549.011 63.714 C 549.590 83.894, 550.352 86.458, 556.706 89.615 C 561.353 91.924, 572.133 92.115, 576.426 89.965 C 580.174 88.089, 581.603 84.029, 579.822 80.321 C 578.558 77.693, 577.297 77.093, 569.750 75.531 L 567 74.962 567 59.981 L 567 45 571.927 45 C 576.060 45, 577.189 44.575, 578.927 42.365 C 583.664 36.343, 579.438 30, 570.689 30 C 567.319 30, 567.271 29.938, 566.671 24.750 C 566.190 20.598, 565.426 18.925, 563.016 16.750 C 559.855 13.898, 558.001 13.521, 554.357 14.992 M 25.667 27.667 C 25.300 28.033, 25 33.208, 25 39.167 L 25 50 33.599 50 C 46.710 50, 52.036 46.673, 51.965 38.527 C 51.888 29.787, 47.799 27, 35.052 27 C 30.257 27, 26.033 27.300, 25.667 27.667 M 98.890 30.470 C 87.431 34.687, 79.933 43.435, 78.135 54.685 C 76.400 65.539, 79.317 75.013, 86.652 82.348 C 91.563 87.259, 95.986 89.503, 103.775 91.035 C 118.500 93.933, 133.264 86.590, 139.587 73.224 C 141.588 68.995, 142.091 66.364, 142.105 60.062 C 142.120 53.267, 141.708 51.364, 139.105 46.208 C 133.435 34.976, 123.083 28.940, 109.712 29.070 C 105.746 29.109, 100.875 29.739, 98.890 30.470 M 163.646 31.003 C 161.527 32.061, 159.132 33.476, 158.323 34.147 C 155.434 36.545, 153 42.883, 153 48.010 C 153 57.716, 157.396 62.172, 172.038 67.305 C 182.556 70.993, 184.442 72.745, 181.458 76.054 C 179.766 77.930, 178.744 78.157, 173.937 77.725 C 170.813 77.443, 166.115 76.079, 163.221 74.612 C 157.262 71.592, 155.296 71.404, 152.223 73.557 C 150.576 74.710, 150 76.118, 150 78.989 C 150 83.584, 152.782 86.020, 161.548 89.101 C 174.498 93.653, 186.550 92.250, 193.406 85.394 C 195.392 83.408, 197.238 80.707, 197.508 79.392 C 197.779 78.076, 198.238 75.858, 198.528 74.463 C 199.400 70.280, 197.065 63.798, 193.466 60.403 C 191.507 58.556, 186.235 55.748, 180.696 53.601 C 175.507 51.591, 170.419 49.015, 169.389 47.878 C 167.553 45.848, 167.562 45.773, 169.869 43.905 C 173.015 41.358, 175.916 41.503, 183.641 44.593 C 191.547 47.756, 194.418 47.289, 196.718 42.466 C 198.304 39.139, 198.287 38.861, 196.345 36.242 C 191.593 29.831, 172.213 26.727, 163.646 31.003 M 256.924 31.578 C 254.560 34.092, 254.492 34.626, 254.188 53.178 C 253.827 75.226, 254.871 80.538, 260.711 86.378 C 264.722 90.388, 272.003 92.587, 277.777 91.532 C 281.940 90.771, 290 86.436, 290 84.958 C 290 83.091, 292.163 84.040, 294.653 87 C 298.915 92.065, 306.255 90.626, 308.915 84.206 C 309.752 82.184, 310.015 74.337, 309.803 57.745 C 309.502 34.350, 309.480 34.136, 307.076 31.579 C 303.495 27.770, 298.030 27.988, 294.589 32.077 C 292.028 35.120, 292 35.335, 292 52 C 292 68.491, 291.947 68.909, 289.511 71.805 C 286.642 75.214, 283.170 76.162, 278.388 74.841 C 273.109 73.384, 272.553 71.381, 272 51.828 C 271.519 34.835, 271.407 34.056, 269.076 31.578 C 265.736 28.026, 260.264 28.027, 256.924 31.578 M 326.861 30.910 C 324.513 32.810, 324.498 32.956, 324.198 57.135 C 324.032 70.508, 324.150 82.461, 324.460 83.697 C 326.002 89.841, 333.606 91.948, 338.354 87.548 C 340.916 85.173, 341 84.736, 341 73.729 C 341 55.586, 343.770 49.576, 354.180 45.130 C 361.181 42.140, 363.038 36.861, 358.927 31.635 C 355.880 27.760, 350.436 27.967, 346.190 32.119 C 344.435 33.834, 343 35.634, 343 36.119 C 343 36.603, 342.550 37, 342 37 C 341.450 37, 341 36.305, 341 35.455 C 341 34.605, 339.895 32.805, 338.545 31.455 C 335.523 28.432, 330.228 28.186, 326.861 30.910 M 382.200 32.058 C 371.069 37.620, 365.992 46.413, 366.066 60 C 366.117 69.421, 367.792 74.859, 372.435 80.678 C 382.692 93.533, 405.536 95.501, 417.355 84.547 C 420.903 81.259, 420.907 76.859, 417.365 74.073 C 413.958 71.392, 412.781 71.458, 407.367 74.631 C 400.868 78.440, 393.153 78.279, 388.134 74.230 C 385.943 72.463, 384.374 70.247, 384.184 68.649 L 383.867 66 401.299 66 C 417.637 66, 418.902 65.865, 421.472 63.844 C 424.023 61.837, 424.186 61.265, 423.821 55.594 C 422.814 39.917, 411.180 29.031, 395.410 29.010 C 389.491 29.002, 387.309 29.505, 382.200 32.058 M 514.924 31.579 C 512.520 34.136, 512.498 34.350, 512.197 57.745 C 511.985 74.337, 512.248 82.184, 513.085 84.206 C 515.569 90.202, 521.842 91.760, 526.694 87.587 L 529.500 85.173 529.500 59.667 L 529.500 34.161 527.076 31.581 C 523.736 28.026, 518.265 28.025, 514.924 31.579 M 390.500 43.954 C 387.618 45.146, 384.366 49.063, 383.612 52.250 L 382.962 55 394.981 55 C 408.206 55, 408.512 54.824, 405.483 48.967 C 402.920 44.011, 395.978 41.688, 390.500 43.954 M 103.500 45.109 C 99.233 47.593, 96.906 50.578, 95.472 55.405 C 94.143 59.880, 94.148 60.930, 95.517 65.052 C 97.464 70.914, 101.260 74.551, 107.041 76.092 C 111.191 77.199, 111.998 77.095, 116.431 74.884 C 122.348 71.933, 125 67.534, 125 60.667 C 125 50.979, 119.659 44.909, 110.592 44.291 C 107.791 44.100, 104.600 44.468, 103.500 45.109" stroke="none" fill="#fcf5f4" fill-rule="evenodd"/><path d="M 0 52.002 L 0 104.003 295.250 103.752 L 590.500 103.500 590.759 51.750 L 591.018 0 295.509 0 L 0 0 0 52.002 M 0.465 52.500 C 0.465 81.100, 0.593 92.656, 0.749 78.180 C 0.906 63.704, 0.906 40.304, 0.749 26.180 C 0.593 12.056, 0.465 23.900, 0.465 52.500 M 515.382 8.909 C 509.845 12.285, 510.123 19.461, 515.907 22.452 C 519.955 24.545, 523.631 24.399, 526.984 22.011 C 532.161 18.325, 531.706 11.451, 526.093 8.548 C 522.133 6.500, 519.168 6.600, 515.382 8.909 M 10.952 12.837 L 8.500 14.821 8.207 48.161 C 8.046 66.497, 8.164 82.500, 8.469 83.722 C 9.906 89.476, 17.445 91.886, 22.139 88.092 C 24.255 86.382, 24.552 85.162, 25 76.342 L 25.500 66.500 37.382 65.803 C 51.425 64.979, 57.550 62.590, 63.788 55.503 C 68.266 50.416, 70 45.470, 70 37.783 C 70 27.534, 65.190 19.087, 56.659 14.359 C 51.565 11.536, 51.261 11.496, 32.452 11.176 C 14.675 10.874, 13.241 10.985, 10.952 12.837 M 441.924 13.581 L 439.500 16.161 439.500 50.667 L 439.500 85.173 442.306 87.587 C 445.891 90.670, 450.108 90.671, 453.694 87.589 C 456.465 85.208, 456.504 85.015, 456.829 72.089 L 457.159 59 472.532 59 C 489.358 59, 492.208 58.327, 494.033 53.921 C 495.719 49.851, 494.119 45.875, 489.940 43.752 C 487.127 42.322, 483.812 42.003, 471.750 42.002 L 457 42 457 34.561 L 457 27.121 476.089 26.811 L 495.177 26.500 497.589 23.694 C 500.547 20.252, 500.653 17.100, 497.927 13.635 L 495.855 11 470.102 11 L 444.349 11 441.924 13.581 M 216.110 15.396 C 212.792 17.234, 211.077 20.745, 211.035 25.781 C 211.009 28.935, 210.539 30.226, 209.250 30.683 C 205.813 31.902, 204 34.310, 204 37.655 C 204 41.189, 206.854 45, 209.500 45 C 210.770 45, 211 47.425, 211 60.822 C 211 83.899, 213.188 88.886, 224.336 91.225 C 228.801 92.161, 231.009 92.145, 234.739 91.147 C 240.805 89.525, 243 87.493, 243 83.500 C 243 79.430, 240.322 76.987, 235.092 76.286 C 232.858 75.986, 230.560 75.175, 229.986 74.483 C 229.340 73.705, 229.048 67.940, 229.221 59.363 L 229.500 45.500 234.741 44.973 C 240.419 44.402, 242.514 42.949, 243.507 38.891 C 244.564 34.573, 240.560 30.856, 234.191 30.244 L 229 29.746 229 25.823 C 229 20.837, 226.882 16.723, 223.528 15.195 C 220.253 13.702, 219.109 13.733, 216.110 15.396 M 554.357 14.992 C 550.940 16.370, 549 20.032, 549 25.101 C 549 29.301, 548.715 29.876, 546.086 30.964 C 542.040 32.640, 540.137 37.373, 542.102 40.873 C 542.904 42.302, 544.672 44.024, 546.030 44.700 C 548.487 45.921, 548.503 46.022, 549.011 63.714 C 549.590 83.894, 550.352 86.458, 556.706 89.615 C 561.353 91.924, 572.133 92.115, 576.426 89.965 C 580.174 88.089, 581.603 84.029, 579.822 80.321 C 578.558 77.693, 577.297 77.093, 569.750 75.531 L 567 74.962 567 59.981 L 567 45 571.927 45 C 576.060 45, 577.189 44.575, 578.927 42.365 C 583.664 36.343, 579.438 30, 570.689 30 C 567.319 30, 567.271 29.938, 566.671 24.750 C 566.190 20.598, 565.426 18.925, 563.016 16.750 C 559.855 13.898, 558.001 13.521, 554.357 14.992 M 25.667 27.667 C 25.300 28.033, 25 33.208, 25 39.167 L 25 50 33.599 50 C 46.710 50, 52.036 46.673, 51.965 38.527 C 51.888 29.787, 47.799 27, 35.052 27 C 30.257 27, 26.033 27.300, 25.667 27.667 M 98.890 30.470 C 87.431 34.687, 79.933 43.435, 78.135 54.685 C 76.400 65.539, 79.317 75.013, 86.652 82.348 C 91.563 87.259, 95.986 89.503, 103.775 91.035 C 118.500 93.933, 133.264 86.590, 139.587 73.224 C 141.588 68.995, 142.091 66.364, 142.105 60.062 C 142.120 53.267, 141.708 51.364, 139.105 46.208 C 133.435 34.976, 123.083 28.940, 109.712 29.070 C 105.746 29.109, 100.875 29.739, 98.890 30.470 M 163.646 31.003 C 161.527 32.061, 159.132 33.476, 158.323 34.147 C 155.434 36.545, 153 42.883, 153 48.010 C 153 57.716, 157.396 62.172, 172.038 67.305 C 182.556 70.993, 184.442 72.745, 181.458 76.054 C 179.766 77.930, 178.744 78.157, 173.937 77.725 C 170.813 77.443, 166.115 76.079, 163.221 74.612 C 157.262 71.592, 155.296 71.404, 152.223 73.557 C 150.576 74.710, 150 76.118, 150 78.989 C 150 83.584, 152.782 86.020, 161.548 89.101 C 174.498 93.653, 186.550 92.250, 193.406 85.394 C 195.392 83.408, 197.238 80.707, 197.508 79.392 C 197.779 78.076, 198.238 75.858, 198.528 74.463 C 199.400 70.280, 197.065 63.798, 193.466 60.403 C 191.507 58.556, 186.235 55.748, 180.696 53.601 C 175.507 51.591, 170.419 49.015, 169.389 47.878 C 167.553 45.848, 167.562 45.773, 169.869 43.905 C 173.015 41.358, 175.916 41.503, 183.641 44.593 C 191.547 47.756, 194.418 47.289, 196.718 42.466 C 198.304 39.139, 198.287 38.861, 196.345 36.242 C 191.593 29.831, 172.213 26.727, 163.646 31.003 M 256.924 31.578 C 254.560 34.092, 254.492 34.626, 254.188 53.178 C 253.827 75.226, 254.871 80.538, 260.711 86.378 C 264.722 90.388, 272.003 92.587, 277.777 91.532 C 281.940 90.771, 290 86.436, 290 84.958 C 290 83.091, 292.163 84.040, 294.653 87 C 298.915 92.065, 306.255 90.626, 308.915 84.206 C 309.752 82.184, 310.015 74.337, 309.803 57.745 C 309.502 34.350, 309.480 34.136, 307.076 31.579 C 303.495 27.770, 298.030 27.988, 294.589 32.077 C 292.028 35.120, 292 35.335, 292 52 C 292 68.491, 291.947 68.909, 289.511 71.805 C 286.642 75.214, 283.170 76.162, 278.388 74.841 C 273.109 73.384, 272.553 71.381, 272 51.828 C 271.519 34.835, 271.407 34.056, 269.076 31.578 C 265.736 28.026, 260.264 28.027, 256.924 31.578 M 326.861 30.910 C 324.513 32.810, 324.498 32.956, 324.198 57.135 C 324.032 70.508, 324.150 82.461, 324.460 83.697 C 326.002 89.841, 333.606 91.948, 338.354 87.548 C 340.916 85.173, 341 84.736, 341 73.729 C 341 55.586, 343.770 49.576, 354.180 45.130 C 361.181 42.140, 363.038 36.861, 358.927 31.635 C 355.880 27.760, 350.436 27.967, 346.190 32.119 C 344.435 33.834, 343 35.634, 343 36.119 C 343 36.603, 342.550 37, 342 37 C 341.450 37, 341 36.305, 341 35.455 C 341 34.605, 339.895 32.805, 338.545 31.455 C 335.523 28.432, 330.228 28.186, 326.861 30.910 M 382.200 32.058 C 371.069 37.620, 365.992 46.413, 366.066 60 C 366.117 69.421, 367.792 74.859, 372.435 80.678 C 382.692 93.533, 405.536 95.501, 417.355 84.547 C 420.903 81.259, 420.907 76.859, 417.365 74.073 C 413.958 71.392, 412.781 71.458, 407.367 74.631 C 400.868 78.440, 393.153 78.279, 388.134 74.230 C 385.943 72.463, 384.374 70.247, 384.184 68.649 L 383.867 66 401.299 66 C 417.637 66, 418.902 65.865, 421.472 63.844 C 424.023 61.837, 424.186 61.265, 423.821 55.594 C 422.814 39.917, 411.180 29.031, 395.410 29.010 C 389.491 29.002, 387.309 29.505, 382.200 32.058 M 514.924 31.579 C 512.520 34.136, 512.498 34.350, 512.197 57.745 C 511.985 74.337, 512.248 82.184, 513.085 84.206 C 515.569 90.202, 521.842 91.760, 526.694 87.587 L 529.500 85.173 529.500 59.667 L 529.500 34.161 527.076 31.581 C 523.736 28.026, 518.265 28.025, 514.924 31.579 M 390.500 43.954 C 387.618 45.146, 384.366 49.063, 383.612 52.250 L 382.962 55 394.981 55 C 408.206 55, 408.512 54.824, 405.483 48.967 C 402.920 44.011, 395.978 41.688, 390.500 43.954 M 103.500 45.109 C 99.233 47.593, 96.906 50.578, 95.472 55.405 C 94.143 59.880, 94.148 60.930, 95.517 65.052 C 97.464 70.914, 101.260 74.551, 107.041 76.092 C 111.191 77.199, 111.998 77.095, 116.431 74.884 C 122.348 71.933, 125 67.534, 125 60.667 C 125 50.979, 119.659 44.909, 110.592 44.291 C 107.791 44.100, 104.600 44.468, 103.500 45.109" stroke="none" fill="#fc5030" fill-rule="evenodd"/></svg>